<svg xmlns="http://www.w3.org/2000/svg" xmlns:xlink="http://www.w3.org/1999/xlink" version="1.1" id="Layer_1" x="0px" y="0px" width="100%" viewBox="0 0 496 496" enable-background="new 0 0 496 496" xml:space="preserve">
<path fill="#00e701" opacity="1.000000" stroke="none" d=" M165.209869,33.057274   C185.365967,25.217531 205.824234,19.883160 226.929932,17.865484   C267.248718,14.011061 306.500397,19.324100 343.530273,35.908836   C414.311615,67.609970 459.394897,121.497856 478.701263,196.627518   C485.169342,221.797760 486.916901,247.562225 484.184631,273.389587   C478.731659,324.935211 459.005341,370.266479 424.063934,408.869843   C400.850220,434.516479 373.121185,453.688446 341.487213,467.243317   C321.515869,475.800842 300.585907,480.941864 278.943481,483.465942   C248.150711,487.057251 217.877853,484.977264 188.017181,476.661682   C151.888550,466.600616 120.003601,448.827728 92.505302,423.412933   C54.858574,388.618622 30.914083,345.905029 21.230465,295.601074   C10.370831,239.188034 19.178820,185.618942 47.339100,135.543869   C73.396011,89.209053 111.460014,56.041920 160.203415,35.025162   C161.730499,34.366722 163.302414,33.812176 165.209869,33.057274  M393.361908,427.858917   C402.370026,420.426727 411.008667,412.604462 418.762299,403.844604   C468.310150,347.866821 486.973358,282.738892 474.110840,209.362885   C464.906067,156.852676 439.148468,112.893257 398.334534,78.405037   C345.142426,33.457165 283.414886,16.374575 214.914978,26.821247   C162.300247,34.845325 117.535217,59.373837 82.234520,99.475853   C32.358681,156.135376 14.315788,222.243820 28.604479,296.210724   C39.319302,351.677124 68.293663,396.730804 113.092506,431.237030   C144.718765,455.597076 180.423203,470.524719 220.094727,475.932587   C242.531982,478.991150 264.969604,478.978271 287.211426,475.307220   C326.401886,468.838776 361.672302,453.098145 393.361908,427.858917  z"/>
<path fill="#00e701" opacity="1.000000" stroke="none" d=" M284.067322,91.072319   C293.681122,114.599243 294.013397,107.292610 283.631805,131.020996   C264.879425,173.881760 245.659073,216.537704 226.676849,259.298126   C224.653076,263.856995 222.964386,268.563446 221.024399,273.161011   C219.644012,276.432373 220.836624,277.603394 224.158249,278.028168   C232.962189,279.154022 241.796463,278.476227 250.611374,278.763092   C265.038391,279.232483 265.121063,279.101807 271.521088,291.830627   C275.033539,298.816467 278.349670,305.908936 281.499481,313.065491   C282.814636,316.053619 284.064575,319.235718 282.284119,322.651978   C280.704193,325.683441 278.773407,327.410858 274.950775,327.437256   C251.300461,327.600555 227.652313,328.178467 204.002426,328.242035   C198.121857,328.257843 195.094040,330.372803 192.795013,335.799103   C186.561859,350.510925 179.304382,364.793121 173.217041,379.560608   C170.042603,387.261566 164.778351,390.206482 157.118958,390.247711   C144.624161,390.315002 132.126968,390.168152 119.634552,390.358337   C112.338951,390.469421 106.800232,382.713409 110.085335,375.332367   C126.605072,338.215698 143.807678,301.417175 160.900345,264.566681   C190.114944,201.582275 218.868408,138.382919 248.869171,75.764847   C250.667755,72.010818 252.437897,68.239998 254.357605,64.547890   C257.780396,57.964970 266.573669,57.559734 270.571350,63.911961   C275.908295,72.392159 279.590363,81.724991 284.067322,91.072319  z"/>
<path fill="#00e701" opacity="1.000000" stroke="none" d=" M321.131042,366.130798   C332.165649,351.626312 333.361389,336.442719 326.003662,320.333862   C312.447693,290.654816 299.019958,260.916870 285.350647,231.290268   C283.014862,226.227798 282.687225,221.643921 284.996887,216.536636   C290.963379,203.342880 296.667999,190.030853 302.508209,176.779678   C304.585571,172.066254 307.044495,167.784317 313.145721,167.699142   C319.424988,167.611526 321.575073,172.318787 323.720612,176.846405   C335.981232,202.719467 348.232269,228.597580 360.341431,254.541733   C367.590912,270.073853 375.017334,285.529694 381.428802,301.442474   C403.218842,355.523926 376.094299,415.891724 321.398102,435.316711   C304.769135,441.222382 287.482025,441.581421 270.127319,440.158508   C265.663574,439.792542 262.638489,437.007385 262.740082,432.239624   C263.030792,418.598724 261.247955,404.968750 262.665588,391.321381   C263.218689,385.996521 266.165466,383.108398 272.346741,382.702057   C278.156158,382.320160 283.977020,381.988251 289.796539,381.909851   C302.695190,381.736053 312.714233,375.936584 321.131042,366.130798  z"/>
</svg>