<svg version="1.1" id="Layer_1" xmlns="http://www.w3.org/2000/svg" xmlns:xlink="http://www.w3.org/1999/xlink" x="0px" y="0px"
	 width="100%" viewBox="0 0 500 500" enable-background="new 0 0 500 500" xml:space="preserve">
<path fill="#FEFFFE" opacity="1.000000" stroke="none" 
	d="
M501.000000,190.000000 
	C501.000000,293.999969 501.000000,397.499969 501.000000,500.999939 
	C334.333405,500.999969 167.666794,500.999969 1.000145,501.000000 
	C1.000097,334.333435 1.000097,167.666870 1.000048,1.000234 
	C167.666519,1.000156 334.333038,1.000156 500.999786,1.000078 
	C501.000000,63.833332 501.000000,126.666664 501.000000,190.000000 
M439.094879,389.609650 
	C475.636230,339.380676 490.272522,283.158752 482.701996,221.771210 
	C475.304932,161.790268 447.985779,111.785728 401.792572,72.682076 
	C351.594360,30.188091 293.058289,12.562041 227.901901,18.376553 
	C187.084564,22.019064 149.811081,36.460613 116.083702,60.175179 
	C27.246397,122.638908 -6.941503,240.817825 35.204765,340.941956 
	C79.792580,446.866272 193.440338,504.934448 305.211792,478.295044 
	C360.209137,465.187073 404.598450,435.319366 439.094879,389.609650 
z"/>
<path fill="#14E915" opacity="1.000000" stroke="none" 
	d="
M438.896912,389.906128 
	C404.598450,435.319366 360.209137,465.187073 305.211792,478.295044 
	C193.440338,504.934448 79.792580,446.866272 35.204765,340.941956 
	C-6.941503,240.817825 27.246397,122.638908 116.083702,60.175179 
	C149.811081,36.460613 187.084564,22.019064 227.901901,18.376553 
	C293.058289,12.562041 351.594360,30.188091 401.792572,72.682076 
	C447.985779,111.785728 475.304932,161.790268 482.701996,221.771210 
	C490.272522,283.158752 475.636230,339.380676 438.896912,389.906128 
M112.385490,435.142487 
	C163.108505,472.524048 219.830048,487.816345 282.250092,479.469299 
	C331.680084,472.859344 374.957245,452.090271 410.602966,417.044586 
	C469.455017,359.183136 491.569794,288.729156 477.336426,207.863190 
	C467.244659,150.527710 437.700134,103.641068 391.424896,68.279739 
	C336.767151,26.512905 274.790192,11.843288 207.289322,24.601818 
	C149.175140,35.586147 101.787102,65.440804 66.468597,112.984344 
	C26.374031,166.957108 12.247110,227.743851 24.485865,293.782379 
	C35.231606,351.764862 64.888771,398.783203 112.385490,435.142487 
z"/>
<path fill="#FEFFFE" opacity="1.000000" stroke="none" 
	d="
M112.087532,434.946045 
	C64.888771,398.783203 35.231606,351.764862 24.485865,293.782379 
	C12.247110,227.743851 26.374031,166.957108 66.468597,112.984344 
	C101.787102,65.440804 149.175140,35.586147 207.289322,24.601818 
	C274.790192,11.843288 336.767151,26.512905 391.424896,68.279739 
	C437.700134,103.641068 467.244659,150.527710 477.336426,207.863190 
	C491.569794,288.729156 469.455017,359.183136 410.602966,417.044586 
	C374.957245,452.090271 331.680084,472.859344 282.250092,479.469299 
	C219.830048,487.816345 163.108505,472.524048 112.087532,434.946045 
M253.985733,66.485504 
	C229.330734,119.134857 204.517746,171.710968 180.066330,224.454697 
	C156.804962,274.631348 133.888489,324.968140 110.906334,375.273773 
	C107.379578,382.993500 110.774368,389.220001 119.266014,389.448944 
	C133.227280,389.825317 147.214050,389.226196 161.190536,389.083160 
	C166.109482,389.032806 169.146652,386.605713 171.128708,382.184570 
	C178.397781,365.970154 185.950546,349.881378 193.067825,333.601562 
	C194.872772,329.473053 197.181824,327.938049 201.660202,327.911743 
	C225.977478,327.768738 250.293045,327.335724 274.609222,327.005432 
	C279.655945,326.936829 283.116180,323.020935 282.331848,317.969330 
	C282.004669,315.862000 281.378937,313.721741 280.464508,311.798248 
	C275.828766,302.047180 271.176849,292.298187 266.193451,282.723969 
	C265.451355,281.298279 262.957123,280.089233 261.209290,279.997101 
	C251.067902,279.462555 240.905792,279.335022 230.753983,278.976562 
	C227.025497,278.844910 223.306015,278.458557 218.840942,278.134552 
	C220.011887,274.668518 220.677292,272.126129 221.707687,269.741486 
	C228.558838,253.885910 235.421906,238.034821 242.405457,222.237259 
	C257.649384,187.753769 272.922791,153.283066 288.305450,118.861374 
	C290.511230,113.925583 291.543091,109.342056 289.037872,104.144569 
	C282.910919,91.433258 277.023407,78.605835 271.113403,65.791054 
	C269.293243,61.844322 266.263397,60.144539 262.039337,59.989704 
	C257.808319,59.834606 255.761276,62.386429 253.985733,66.485504 
M314.800995,373.348206 
	C308.103363,378.651947 300.575958,381.943970 291.988068,382.407104 
	C285.837433,382.738800 279.670166,382.748932 273.515350,383.018219 
	C266.716949,383.315735 263.149475,386.151245 263.074066,391.884521 
	C262.898773,405.212341 262.948364,418.544769 263.068787,431.873840 
	C263.108795,436.303955 265.583771,439.092010 270.070221,439.506744 
	C285.421631,440.925934 300.726532,440.750244 315.654449,436.429443 
	C370.982574,420.414886 404.159821,359.530487 381.065765,302.419434 
	C374.034546,285.031403 365.906097,268.076996 357.987305,251.060272 
	C346.070221,225.451553 333.900269,199.960480 321.824738,174.425552 
	C320.073578,170.722473 317.498169,168.028091 313.038513,168.245499 
	C308.803223,168.451996 305.969055,170.734665 304.258179,174.580627 
	C298.384155,187.785141 292.688599,201.075607 286.485291,214.124283 
	C283.376862,220.662842 283.522644,226.399170 286.608826,233.006653 
	C300.318909,262.359924 313.497284,291.960938 327.074707,321.376953 
	C335.314606,339.229065 330.517487,360.308105 314.800995,373.348206 
z"/>
<path fill="#01E702" opacity="1.000000" stroke="none" 
	d="
M254.131622,66.139839 
	C255.761276,62.386429 257.808319,59.834606 262.039337,59.989704 
	C266.263397,60.144539 269.293243,61.844322 271.113403,65.791054 
	C277.023407,78.605835 282.910919,91.433258 289.037872,104.144569 
	C291.543091,109.342056 290.511230,113.925583 288.305450,118.861374 
	C272.922791,153.283066 257.649384,187.753769 242.405457,222.237259 
	C235.421906,238.034821 228.558838,253.885910 221.707687,269.741486 
	C220.677292,272.126129 220.011887,274.668518 218.840942,278.134552 
	C223.306015,278.458557 227.025497,278.844910 230.753983,278.976562 
	C240.905792,279.335022 251.067902,279.462555 261.209290,279.997101 
	C262.957123,280.089233 265.451355,281.298279 266.193451,282.723969 
	C271.176849,292.298187 275.828766,302.047180 280.464508,311.798248 
	C281.378937,313.721741 282.004669,315.862000 282.331848,317.969330 
	C283.116180,323.020935 279.655945,326.936829 274.609222,327.005432 
	C250.293045,327.335724 225.977478,327.768738 201.660202,327.911743 
	C197.181824,327.938049 194.872772,329.473053 193.067825,333.601562 
	C185.950546,349.881378 178.397781,365.970154 171.128708,382.184570 
	C169.146652,386.605713 166.109482,389.032806 161.190536,389.083160 
	C147.214050,389.226196 133.227280,389.825317 119.266014,389.448944 
	C110.774368,389.220001 107.379578,382.993500 110.906334,375.273773 
	C133.888489,324.968140 156.804962,274.631348 180.066330,224.454697 
	C204.517746,171.710968 229.330734,119.134857 254.131622,66.139839 
z"/>
<path fill="#01E702" opacity="1.000000" stroke="none" 
	d="
M315.094299,373.141296 
	C330.517487,360.308105 335.314606,339.229065 327.074707,321.376953 
	C313.497284,291.960938 300.318909,262.359924 286.608826,233.006653 
	C283.522644,226.399170 283.376862,220.662842 286.485291,214.124283 
	C292.688599,201.075607 298.384155,187.785141 304.258179,174.580627 
	C305.969055,170.734665 308.803223,168.451996 313.038513,168.245499 
	C317.498169,168.028091 320.073578,170.722473 321.824738,174.425552 
	C333.900269,199.960480 346.070221,225.451553 357.987305,251.060272 
	C365.906097,268.076996 374.034546,285.031403 381.065765,302.419434 
	C404.159821,359.530487 370.982574,420.414886 315.654449,436.429443 
	C300.726532,440.750244 285.421631,440.925934 270.070221,439.506744 
	C265.583771,439.092010 263.108795,436.303955 263.068787,431.873840 
	C262.948364,418.544769 262.898773,405.212341 263.074066,391.884521 
	C263.149475,386.151245 266.716949,383.315735 273.515350,383.018219 
	C279.670166,382.748932 285.837433,382.738800 291.988068,382.407104 
	C300.575958,381.943970 308.103363,378.651947 315.094299,373.141296 
z"/>
</svg>