<svg xmlns="http://www.w3.org/2000/svg" version="1.0" width="550.000000pt" height="550.000000pt" viewBox="0 0 550.000000 550.000000" preserveAspectRatio="xMidYMid meet">

<g transform="translate(0.000000,550.000000) scale(0.100000,-0.100000)" fill="#00e701" stroke="none">
<path d="M2811 4833 c-12 -11 -285 -589 -652 -1383 -347 -751 -707 -1530 -800 -1731 -93 -201 -169 -376 -169 -388 0 -35 28 -79 61 -96 25 -14 70 -15 293 -13 311 4 285 -6 353 138 76 160 194 422 215 475 11 28 24 55 29 60 6 6 180 12 460 15 l451 5 24 28 c40 47 33 77 -72 289 -53 106 -98 195 -101 198 -2 3 -116 7 -251 10 -244 5 -247 5 -250 27 -2 12 44 126 101 255 643 1435 687 1534 687 1574 0 46 -210 499 -246 532 -32 28 -102 30 -133 5z" fill="#00e701"/>
<path d="M3379 3645 c-29 -16 -26 -10 -170 -330 -68 -152 -103 -242 -103 -265 0 -25 74 -192 247 -562 135 -291 254 -553 263 -584 12 -41 15 -84 12 -154 -3 -88 -7 -105 -40 -171 -46 -94 -96 -152 -172 -201 -93 -60 -165 -78 -316 -78 -138 0 -166 -6 -199 -41 -20 -22 -21 -33 -21 -275 0 -253 0 -253 24 -281 22 -26 31 -28 112 -33 374 -21 656 73 899 302 152 144 257 315 311 510 35 127 45 382 20 508 -28 136 -66 224 -393 920 -24 52 -110 236 -190 408 -121 259 -151 316 -174 328 -35 18 -76 17 -110 -1z" fill="#00e701"/>
</g>
</svg>